<mxfile host="app.diagrams.net" modified="2023-12-04T20:34:19.223Z" agent="Mozilla/5.0 (Windows NT 10.0; Win64; x64) AppleWebKit/537.36 (KHTML, like Gecko) Chrome/119.0.0.0 Safari/537.36" etag="tx6Vfxez4kw40UY77E8m" version="22.1.5" type="github">
  <diagram name="Страница — 1" id="sLGaKFePKuTKOYd_2u9Q">
    <mxGraphModel dx="1167" dy="629" grid="1" gridSize="10" guides="1" tooltips="1" connect="1" arrows="1" fold="1" page="1" pageScale="1" pageWidth="1169" pageHeight="827" math="0" shadow="0">
      <root>
        <mxCell id="0" />
        <mxCell id="1" parent="0" />
        <mxCell id="d_0-ybomqegLIX4zGUmX-1" value="&lt;b&gt;Создание пользователя&lt;br&gt;&lt;/b&gt;" style="shape=umlFrame;whiteSpace=wrap;html=1;pointerEvents=0;recursiveResize=0;container=1;collapsible=0;width=160;" parent="1" vertex="1">
          <mxGeometry x="80" y="210" width="640" height="560" as="geometry" />
        </mxCell>
        <mxCell id="d_0-ybomqegLIX4zGUmX-2" value="" style="shape=table;startSize=0;container=1;collapsible=0;childLayout=tableLayout;fontSize=16;" parent="d_0-ybomqegLIX4zGUmX-1" vertex="1">
          <mxGeometry x="20" y="33" width="600" height="507" as="geometry" />
        </mxCell>
        <mxCell id="d_0-ybomqegLIX4zGUmX-3" value="" style="shape=tableRow;horizontal=0;startSize=0;swimlaneHead=0;swimlaneBody=0;strokeColor=inherit;top=0;left=0;bottom=0;right=0;collapsible=0;dropTarget=0;fillColor=none;points=[[0,0.5],[1,0.5]];portConstraint=eastwest;fontSize=16;" parent="d_0-ybomqegLIX4zGUmX-2" vertex="1">
          <mxGeometry width="600" height="36" as="geometry" />
        </mxCell>
        <mxCell id="d_0-ybomqegLIX4zGUmX-4" value="&lt;b&gt;Администратор&lt;/b&gt;" style="shape=partialRectangle;html=1;whiteSpace=wrap;connectable=0;strokeColor=inherit;overflow=hidden;fillColor=none;top=0;left=0;bottom=0;right=0;pointerEvents=1;fontSize=16;" parent="d_0-ybomqegLIX4zGUmX-3" vertex="1">
          <mxGeometry width="300" height="36" as="geometry">
            <mxRectangle width="300" height="36" as="alternateBounds" />
          </mxGeometry>
        </mxCell>
        <mxCell id="d_0-ybomqegLIX4zGUmX-5" value="&lt;b&gt;Система&lt;/b&gt;" style="shape=partialRectangle;html=1;whiteSpace=wrap;connectable=0;strokeColor=inherit;overflow=hidden;fillColor=none;top=0;left=0;bottom=0;right=0;pointerEvents=1;fontSize=16;" parent="d_0-ybomqegLIX4zGUmX-3" vertex="1">
          <mxGeometry x="300" width="300" height="36" as="geometry">
            <mxRectangle width="300" height="36" as="alternateBounds" />
          </mxGeometry>
        </mxCell>
        <mxCell id="d_0-ybomqegLIX4zGUmX-7" value="" style="shape=tableRow;horizontal=0;startSize=0;swimlaneHead=0;swimlaneBody=0;strokeColor=inherit;top=0;left=0;bottom=0;right=0;collapsible=0;dropTarget=0;fillColor=none;points=[[0,0.5],[1,0.5]];portConstraint=eastwest;fontSize=16;" parent="d_0-ybomqegLIX4zGUmX-2" vertex="1">
          <mxGeometry y="36" width="600" height="471" as="geometry" />
        </mxCell>
        <mxCell id="d_0-ybomqegLIX4zGUmX-8" value="" style="shape=partialRectangle;html=1;whiteSpace=wrap;connectable=0;strokeColor=inherit;overflow=hidden;fillColor=none;top=0;left=0;bottom=0;right=0;pointerEvents=1;fontSize=16;" parent="d_0-ybomqegLIX4zGUmX-7" vertex="1">
          <mxGeometry width="300" height="471" as="geometry">
            <mxRectangle width="300" height="471" as="alternateBounds" />
          </mxGeometry>
        </mxCell>
        <mxCell id="d_0-ybomqegLIX4zGUmX-9" value="" style="shape=partialRectangle;html=1;whiteSpace=wrap;connectable=0;strokeColor=inherit;overflow=hidden;fillColor=none;top=0;left=0;bottom=0;right=0;pointerEvents=1;fontSize=16;" parent="d_0-ybomqegLIX4zGUmX-7" vertex="1">
          <mxGeometry x="300" width="300" height="471" as="geometry">
            <mxRectangle width="300" height="471" as="alternateBounds" />
          </mxGeometry>
        </mxCell>
        <mxCell id="d_0-ybomqegLIX4zGUmX-12" value="" style="ellipse;fillColor=strokeColor;html=1;" parent="d_0-ybomqegLIX4zGUmX-1" vertex="1">
          <mxGeometry x="154.5" y="85" width="30" height="30" as="geometry" />
        </mxCell>
        <mxCell id="d_0-ybomqegLIX4zGUmX-13" value="" style="ellipse;html=1;shape=endState;fillColor=strokeColor;" parent="d_0-ybomqegLIX4zGUmX-1" vertex="1">
          <mxGeometry x="154.5" y="500" width="30" height="30" as="geometry" />
        </mxCell>
        <mxCell id="d_0-ybomqegLIX4zGUmX-39" style="edgeStyle=orthogonalEdgeStyle;rounded=0;orthogonalLoop=1;jettySize=auto;html=1;entryX=0.5;entryY=0;entryDx=0;entryDy=0;" parent="d_0-ybomqegLIX4zGUmX-1" edge="1" target="5_E8nyB5CHULtm5SXHMz-1">
          <mxGeometry relative="1" as="geometry">
            <mxPoint x="169.4" y="284.1699999999999" as="sourcePoint" />
            <mxPoint x="169.4" y="310.0033333333333" as="targetPoint" />
            <Array as="points" />
          </mxGeometry>
        </mxCell>
        <mxCell id="d_0-ybomqegLIX4zGUmX-16" value="Заполняет поля: имя, email, пароль, права администратора" style="shape=mxgraph.uml25.action;html=1;align=center;verticalAlign=middle;absoluteArcSize=1;arcSize=10;dashed=0;spacingRight=10;whiteSpace=wrap;fillColor=#ffe6cc;strokeColor=#d79b00;" parent="d_0-ybomqegLIX4zGUmX-1" vertex="1">
          <mxGeometry x="84.5" y="240" width="170" height="46" as="geometry" />
        </mxCell>
        <mxCell id="ib98aIDuYdYDlpaKpi3l-13" style="edgeStyle=orthogonalEdgeStyle;rounded=0;orthogonalLoop=1;jettySize=auto;html=1;entryX=0.5;entryY=0;entryDx=0;entryDy=0;" parent="d_0-ybomqegLIX4zGUmX-1" source="d_0-ybomqegLIX4zGUmX-18" target="d_0-ybomqegLIX4zGUmX-27" edge="1">
          <mxGeometry relative="1" as="geometry">
            <Array as="points">
              <mxPoint x="475" y="210" />
              <mxPoint x="475" y="210" />
            </Array>
          </mxGeometry>
        </mxCell>
        <mxCell id="d_0-ybomqegLIX4zGUmX-18" value="Проводит валидацию полей " style="rounded=1;whiteSpace=wrap;html=1;fillColor=#ffe6cc;strokeColor=#d79b00;" parent="d_0-ybomqegLIX4zGUmX-1" vertex="1">
          <mxGeometry x="397.5" y="100" width="152.5" height="29" as="geometry" />
        </mxCell>
        <mxCell id="d_0-ybomqegLIX4zGUmX-19" value="" style="rounded=0;whiteSpace=wrap;html=1;fillColor=#ffe6cc;strokeColor=#d79b00;" parent="d_0-ybomqegLIX4zGUmX-1" vertex="1">
          <mxGeometry x="410" y="129" width="20" height="10" as="geometry" />
        </mxCell>
        <mxCell id="d_0-ybomqegLIX4zGUmX-20" value="" style="endArrow=classic;html=1;rounded=0;entryX=0.5;entryY=1;entryDx=0;entryDy=0;exitX=1;exitY=0.514;exitDx=0;exitDy=0;exitPerimeter=0;fillColor=#0050ef;strokeColor=#001DBC;" parent="d_0-ybomqegLIX4zGUmX-1" source="d_0-ybomqegLIX4zGUmX-16" target="d_0-ybomqegLIX4zGUmX-19" edge="1">
          <mxGeometry width="50" height="50" relative="1" as="geometry">
            <mxPoint x="440" y="390" as="sourcePoint" />
            <mxPoint x="490" y="340" as="targetPoint" />
            <Array as="points">
              <mxPoint x="420" y="264" />
            </Array>
          </mxGeometry>
        </mxCell>
        <mxCell id="ib98aIDuYdYDlpaKpi3l-22" style="edgeStyle=orthogonalEdgeStyle;rounded=0;orthogonalLoop=1;jettySize=auto;html=1;" parent="d_0-ybomqegLIX4zGUmX-1" edge="1">
          <mxGeometry relative="1" as="geometry">
            <mxPoint x="470" y="400" as="sourcePoint" />
            <Array as="points">
              <mxPoint x="470" y="410" />
              <mxPoint x="470" y="410" />
            </Array>
            <mxPoint x="470.0588235294117" y="430" as="targetPoint" />
          </mxGeometry>
        </mxCell>
        <mxCell id="d_0-ybomqegLIX4zGUmX-27" value="" style="rhombus;whiteSpace=wrap;html=1;fillColor=#647687;fontColor=#ffffff;strokeColor=#314354;" parent="d_0-ybomqegLIX4zGUmX-1" vertex="1">
          <mxGeometry x="460" y="230" width="30" height="20" as="geometry" />
        </mxCell>
        <mxCell id="d_0-ybomqegLIX4zGUmX-28" style="edgeStyle=orthogonalEdgeStyle;rounded=0;orthogonalLoop=1;jettySize=auto;html=1;entryX=0.5;entryY=0;entryDx=0;entryDy=0;" parent="d_0-ybomqegLIX4zGUmX-1" source="d_0-ybomqegLIX4zGUmX-27" target="5_E8nyB5CHULtm5SXHMz-9" edge="1">
          <mxGeometry relative="1" as="geometry">
            <Array as="points">
              <mxPoint x="475" y="300" />
              <mxPoint x="415" y="300" />
            </Array>
            <mxPoint x="410" y="320" as="targetPoint" />
          </mxGeometry>
        </mxCell>
        <mxCell id="UeBJ895DvjhMq9SfwRCP-1" style="edgeStyle=orthogonalEdgeStyle;rounded=0;orthogonalLoop=1;jettySize=auto;html=1;entryX=0.5;entryY=0;entryDx=0;entryDy=0;" edge="1" parent="d_0-ybomqegLIX4zGUmX-1" source="d_0-ybomqegLIX4zGUmX-30" target="5_E8nyB5CHULtm5SXHMz-11">
          <mxGeometry relative="1" as="geometry" />
        </mxCell>
        <mxCell id="d_0-ybomqegLIX4zGUmX-30" value="Отправить уведомление о регистрации" style="rounded=1;whiteSpace=wrap;html=1;fillColor=#ffe6cc;strokeColor=#d79b00;" parent="d_0-ybomqegLIX4zGUmX-1" vertex="1">
          <mxGeometry x="390" y="430" width="160" height="40" as="geometry" />
        </mxCell>
        <mxCell id="d_0-ybomqegLIX4zGUmX-31" value="" style="endArrow=classic;html=1;rounded=0;exitX=1;exitY=0.5;exitDx=0;exitDy=0;entryX=0.899;entryY=0.011;entryDx=0;entryDy=0;entryPerimeter=0;" parent="d_0-ybomqegLIX4zGUmX-1" source="d_0-ybomqegLIX4zGUmX-27" target="5_E8nyB5CHULtm5SXHMz-10" edge="1">
          <mxGeometry width="50" height="50" relative="1" as="geometry">
            <mxPoint x="560" y="260" as="sourcePoint" />
            <mxPoint x="530" y="360" as="targetPoint" />
            <Array as="points">
              <mxPoint x="530" y="240" />
            </Array>
          </mxGeometry>
        </mxCell>
        <mxCell id="d_0-ybomqegLIX4zGUmX-32" value="[успех]" style="text;html=1;strokeColor=none;fillColor=none;align=center;verticalAlign=middle;whiteSpace=wrap;rounded=0;" parent="d_0-ybomqegLIX4zGUmX-1" vertex="1">
          <mxGeometry x="480" y="210" width="60" height="30" as="geometry" />
        </mxCell>
        <mxCell id="d_0-ybomqegLIX4zGUmX-64" value="пользователь" style="text;html=1;strokeColor=none;fillColor=none;align=center;verticalAlign=middle;whiteSpace=wrap;rounded=0;" parent="d_0-ybomqegLIX4zGUmX-1" vertex="1">
          <mxGeometry x="350" y="235" width="60" height="30" as="geometry" />
        </mxCell>
        <mxCell id="5_E8nyB5CHULtm5SXHMz-15" style="edgeStyle=orthogonalEdgeStyle;rounded=0;orthogonalLoop=1;jettySize=auto;html=1;entryX=0.5;entryY=1;entryDx=0;entryDy=0;fillColor=#0050ef;strokeColor=#001DBC;" parent="d_0-ybomqegLIX4zGUmX-1" source="d_0-ybomqegLIX4zGUmX-66" target="5_E8nyB5CHULtm5SXHMz-14" edge="1">
          <mxGeometry relative="1" as="geometry">
            <Array as="points">
              <mxPoint x="610" y="114" />
              <mxPoint x="610" y="385" />
            </Array>
          </mxGeometry>
        </mxCell>
        <mxCell id="d_0-ybomqegLIX4zGUmX-66" value="" style="rounded=0;whiteSpace=wrap;html=1;fillColor=#ffe6cc;strokeColor=#d79b00;rotation=-90;" parent="d_0-ybomqegLIX4zGUmX-1" vertex="1">
          <mxGeometry x="545" y="109.5" width="20" height="10" as="geometry" />
        </mxCell>
        <mxCell id="d_0-ybomqegLIX4zGUmX-69" value="пользователь" style="text;html=1;strokeColor=none;fillColor=none;align=center;verticalAlign=middle;whiteSpace=wrap;rounded=0;" parent="d_0-ybomqegLIX4zGUmX-1" vertex="1">
          <mxGeometry x="540" y="129" width="60" height="30" as="geometry" />
        </mxCell>
        <mxCell id="d_0-ybomqegLIX4zGUmX-70" value="Выбирает &quot;Создать пользователя&quot;" style="html=1;align=center;verticalAlign=middle;rounded=1;absoluteArcSize=1;arcSize=10;dashed=0;whiteSpace=wrap;fillColor=#ffe6cc;strokeColor=#d79b00;" parent="d_0-ybomqegLIX4zGUmX-1" vertex="1">
          <mxGeometry x="99.5" y="164" width="140" height="40" as="geometry" />
        </mxCell>
        <mxCell id="ib98aIDuYdYDlpaKpi3l-11" value="" style="endArrow=classic;html=1;rounded=0;exitX=0.5;exitY=1;exitDx=0;exitDy=0;" parent="d_0-ybomqegLIX4zGUmX-1" source="d_0-ybomqegLIX4zGUmX-70" target="d_0-ybomqegLIX4zGUmX-16" edge="1">
          <mxGeometry width="50" height="50" relative="1" as="geometry">
            <mxPoint x="130" y="310" as="sourcePoint" />
            <mxPoint x="180" y="260" as="targetPoint" />
          </mxGeometry>
        </mxCell>
        <mxCell id="ib98aIDuYdYDlpaKpi3l-12" value="" style="endArrow=classic;html=1;rounded=0;exitX=0.5;exitY=1;exitDx=0;exitDy=0;entryX=0.5;entryY=0;entryDx=0;entryDy=0;" parent="d_0-ybomqegLIX4zGUmX-1" source="d_0-ybomqegLIX4zGUmX-12" target="d_0-ybomqegLIX4zGUmX-70" edge="1">
          <mxGeometry width="50" height="50" relative="1" as="geometry">
            <mxPoint x="130" y="310" as="sourcePoint" />
            <mxPoint x="180" y="260" as="targetPoint" />
          </mxGeometry>
        </mxCell>
        <mxCell id="5_E8nyB5CHULtm5SXHMz-7" style="edgeStyle=orthogonalEdgeStyle;rounded=0;orthogonalLoop=1;jettySize=auto;html=1;entryX=0;entryY=0.5;entryDx=0;entryDy=0;" parent="d_0-ybomqegLIX4zGUmX-1" source="5_E8nyB5CHULtm5SXHMz-1" target="d_0-ybomqegLIX4zGUmX-18" edge="1">
          <mxGeometry relative="1" as="geometry">
            <Array as="points">
              <mxPoint x="330" y="420" />
              <mxPoint x="330" y="115" />
              <mxPoint x="398" y="115" />
            </Array>
          </mxGeometry>
        </mxCell>
        <mxCell id="5_E8nyB5CHULtm5SXHMz-1" value="Подтверждает создание пользователя" style="html=1;align=center;verticalAlign=middle;rounded=1;absoluteArcSize=1;arcSize=10;dashed=0;whiteSpace=wrap;fillColor=#ffe6cc;strokeColor=#d79b00;" parent="d_0-ybomqegLIX4zGUmX-1" vertex="1">
          <mxGeometry x="99.5" y="350" width="140" height="40" as="geometry" />
        </mxCell>
        <mxCell id="5_E8nyB5CHULtm5SXHMz-2" value="Получает уведомление о результате" style="html=1;align=center;verticalAlign=middle;rounded=1;absoluteArcSize=1;arcSize=10;dashed=0;whiteSpace=wrap;fillColor=#ffe6cc;strokeColor=#d79b00;" parent="d_0-ybomqegLIX4zGUmX-1" vertex="1">
          <mxGeometry x="99.5" y="450" width="140" height="40" as="geometry" />
        </mxCell>
        <mxCell id="5_E8nyB5CHULtm5SXHMz-6" value="" style="endArrow=classic;html=1;rounded=0;exitX=0.5;exitY=1;exitDx=0;exitDy=0;entryX=0.5;entryY=0;entryDx=0;entryDy=0;" parent="d_0-ybomqegLIX4zGUmX-1" source="5_E8nyB5CHULtm5SXHMz-2" target="d_0-ybomqegLIX4zGUmX-13" edge="1">
          <mxGeometry width="50" height="50" relative="1" as="geometry">
            <mxPoint x="160" y="470" as="sourcePoint" />
            <mxPoint x="210" y="420" as="targetPoint" />
          </mxGeometry>
        </mxCell>
        <mxCell id="UeBJ895DvjhMq9SfwRCP-2" style="edgeStyle=orthogonalEdgeStyle;rounded=0;orthogonalLoop=1;jettySize=auto;html=1;exitX=0.25;exitY=1;exitDx=0;exitDy=0;entryX=1;entryY=0.25;entryDx=0;entryDy=0;" edge="1" parent="d_0-ybomqegLIX4zGUmX-1" source="5_E8nyB5CHULtm5SXHMz-9" target="5_E8nyB5CHULtm5SXHMz-2">
          <mxGeometry relative="1" as="geometry" />
        </mxCell>
        <mxCell id="5_E8nyB5CHULtm5SXHMz-9" value="Уведомляет, что поля невалидны" style="html=1;align=center;verticalAlign=middle;rounded=1;absoluteArcSize=1;arcSize=10;dashed=0;whiteSpace=wrap;fillColor=#ffe6cc;strokeColor=#d79b00;" parent="d_0-ybomqegLIX4zGUmX-1" vertex="1">
          <mxGeometry x="345" y="320" width="140" height="40" as="geometry" />
        </mxCell>
        <mxCell id="5_E8nyB5CHULtm5SXHMz-10" value="Сохраняет пользователя в системе" style="html=1;align=center;verticalAlign=middle;rounded=1;absoluteArcSize=1;arcSize=10;dashed=0;whiteSpace=wrap;fillColor=#ffe6cc;strokeColor=#d79b00;" parent="d_0-ybomqegLIX4zGUmX-1" vertex="1">
          <mxGeometry x="395" y="365" width="150" height="40" as="geometry" />
        </mxCell>
        <mxCell id="5_E8nyB5CHULtm5SXHMz-13" style="edgeStyle=orthogonalEdgeStyle;rounded=0;orthogonalLoop=1;jettySize=auto;html=1;entryX=1;entryY=0.5;entryDx=0;entryDy=0;" parent="d_0-ybomqegLIX4zGUmX-1" source="5_E8nyB5CHULtm5SXHMz-11" target="5_E8nyB5CHULtm5SXHMz-2" edge="1">
          <mxGeometry relative="1" as="geometry" />
        </mxCell>
        <mxCell id="5_E8nyB5CHULtm5SXHMz-11" value="Уведомляет об успешном создании пользователя" style="html=1;align=center;verticalAlign=middle;rounded=1;absoluteArcSize=1;arcSize=10;dashed=0;whiteSpace=wrap;fillColor=#ffe6cc;strokeColor=#d79b00;" parent="d_0-ybomqegLIX4zGUmX-1" vertex="1">
          <mxGeometry x="390" y="495" width="160" height="40" as="geometry" />
        </mxCell>
        <mxCell id="5_E8nyB5CHULtm5SXHMz-14" value="" style="rounded=0;whiteSpace=wrap;html=1;fillColor=#ffe6cc;strokeColor=#d79b00;rotation=-90;" parent="d_0-ybomqegLIX4zGUmX-1" vertex="1">
          <mxGeometry x="540" y="380" width="20" height="10" as="geometry" />
        </mxCell>
      </root>
    </mxGraphModel>
  </diagram>
</mxfile>
